# Blender v2.79 (sub 0) OBJ File: ''
# www.blender.org
mtllib peb2.mtl
o Cube.001_Cube.002
v -0.410829 0.094219 -0.398850
v -0.321542 0.088161 -0.558398
v -0.231687 -0.014550 -0.474133
v -0.276885 -0.029647 -0.334834
v 0.523893 0.018412 -0.463858
v 0.698697 0.094501 -0.480451
v 0.637251 0.006362 -0.440820
v 0.487354 -0.065017 -0.397425
v 0.447228 0.150363 -0.311082
v 0.232415 0.159454 -0.222638
v 0.195100 0.077928 -0.225496
v 0.353453 0.043095 -0.287074
v -0.068269 0.130195 0.322818
v -0.234314 0.156541 0.278139
v -0.189159 0.038806 0.224563
v -0.053397 0.003331 0.228589
v 0.448775 -0.095940 -0.336220
v 0.661681 0.002904 -0.415084
v -0.048391 0.385519 -0.344196
v -0.032397 0.360678 -0.528217
v -0.252011 0.418811 -0.514954
v -0.261562 0.476449 -0.349584
v -0.307343 0.127796 0.074463
v -0.369586 0.103572 -0.161388
v -0.262440 -0.026725 -0.153586
v -0.236259 -0.005729 0.039742
v -0.282230 0.415261 0.075877
v -0.367323 0.398519 -0.148525
v -0.393099 0.251404 -0.154314
v -0.310117 0.273686 0.081013
v -0.425974 0.378191 -0.379449
v -0.336468 0.331241 -0.557509
v -0.339473 0.204500 -0.571489
v -0.444665 0.238466 -0.400961
v -0.055986 0.026476 -0.507612
v 0.252402 -0.009647 -0.468311
v 0.255642 -0.106945 -0.376278
v -0.024885 -0.074895 -0.418974
v -0.065483 0.271931 -0.584003
v 0.246428 0.233723 -0.572698
v 0.241148 0.096780 -0.498088
v -0.072514 0.140321 -0.539083
v 0.506034 0.219718 -0.499777
v 0.677006 0.289333 -0.478870
v 0.726208 0.205713 -0.504528
v 0.519072 0.116469 -0.474233
v 0.834514 0.133315 -0.474959
v 0.663175 0.142768 -0.393845
v 0.530869 0.018711 -0.353443
v 0.807315 0.398664 -0.454364
v 0.708036 0.417824 -0.370782
v 0.710284 0.283348 -0.401711
v 0.844273 0.269499 -0.483605
v 0.569574 0.399363 -0.284915
v 0.365455 0.365598 -0.179840
v 0.344443 0.263938 -0.182007
v 0.528115 0.276289 -0.307091
v 0.098121 0.145097 -0.099794
v 0.034037 0.127112 0.115912
v 0.026825 0.008713 0.047996
v 0.090982 0.044575 -0.138679
v 0.203616 0.388105 -0.014524
v 0.090400 0.386979 0.171376
v 0.057179 0.255982 0.147552
v 0.152171 0.266056 -0.044956
v -0.048881 0.399380 0.351019
v -0.213577 0.401299 0.278590
v -0.237964 0.282485 0.293917
v -0.066647 0.268843 0.362522
v 0.159430 -0.026731 -0.202418
v 0.316528 -0.080762 -0.270835
v -0.071251 -0.084885 0.080926
v -0.072572 -0.125978 -0.096811
v 0.128142 -0.133704 -0.151782
v 0.049285 -0.079752 -0.050172
v -0.060256 -0.122567 -0.282476
v 0.221404 -0.152458 -0.255789
v 0.009601 0.429485 0.059765
v -0.021071 0.419652 -0.141945
v -0.224187 0.498290 -0.154456
v -0.178140 0.483952 0.042712
v 0.279312 0.435572 -0.193636
v 0.383583 0.416242 -0.270890
v 0.196266 0.344184 -0.170253
v 0.158001 0.423022 -0.047420
v 0.469643 0.334769 -0.358402
v 0.503807 0.327503 -0.493532
v 0.246535 0.321799 -0.509336
v 0.235808 0.277706 -0.300780
v -0.141775 0.473101 0.215711
v 0.638826 0.345817 -0.459872
v 0.666075 0.416854 -0.413820
v 0.597618 0.463715 -0.341111
v 0.431658 0.429949 -0.278750
v 0.307446 0.407576 -0.203751
v 0.210006 0.435023 -0.073538
v 0.125163 0.471169 0.133583
v 0.000944 0.467179 0.250417
vt 0.604077 0.495116
vt 0.594584 0.413506
vt 0.653988 0.421104
vt 0.671282 0.492076
vt 0.593688 0.148853
vt 0.575398 0.070499
vt 0.636807 0.078300
vt 0.660739 0.137962
vt 0.789256 0.149888
vt 0.716330 0.150846
vt 0.731634 0.088521
vt 0.790541 0.070356
vt 0.927325 0.468399
vt 0.912819 0.389571
vt 0.976571 0.409855
vt 0.999921 0.477946
vt 0.701588 0.104130
vt 0.666159 0.030164
vt 0.109493 0.322650
vt 0.155323 0.405290
vt 0.063837 0.390613
vt 0.021316 0.328120
vt 0.606936 0.670730
vt 0.609996 0.585972
vt 0.678280 0.569138
vt 0.678105 0.643647
vt 0.432552 0.692049
vt 0.434015 0.613435
vt 0.523363 0.601454
vt 0.519786 0.685018
vt 0.434941 0.525720
vt 0.439503 0.446440
vt 0.519612 0.425866
vt 0.519220 0.507827
vt 0.611218 0.308091
vt 0.609711 0.230793
vt 0.680039 0.213612
vt 0.679195 0.285971
vt 0.437291 0.316586
vt 0.432304 0.240893
vt 0.523412 0.236232
vt 0.527893 0.315709
vt 0.432273 0.157685
vt 0.421245 0.077354
vt 0.493316 0.070658
vt 0.511044 0.150829
vt 0.962667 0.138532
vt 0.876330 0.142762
vt 0.867912 0.060507
vt 0.940733 0.058511
vt 0.945664 0.328830
vt 0.860779 0.333349
vt 0.874215 0.239719
vt 0.963384 0.235102
vt 0.783094 0.322848
vt 0.709470 0.305168
vt 0.701588 0.235587
vt 0.784472 0.239701
vt 0.923362 0.638074
vt 0.928891 0.554329
vt 1.000000 0.552333
vt 0.989277 0.630517
vt 0.751622 0.645877
vt 0.751352 0.556617
vt 0.842345 0.556578
vt 0.838756 0.648536
vt 0.753242 0.465345
vt 0.762241 0.388131
vt 0.837763 0.383476
vt 0.840892 0.464145
vt 0.067318 0.661999
vt 0.159048 0.673112
vt 0.150123 0.748766
vt 0.073597 0.733505
vt 0.077392 0.482904
vt 0.169546 0.483824
vt 0.164754 0.577255
vt 0.070244 0.572188
vt 0.261491 0.494731
vt 0.324825 0.510449
vt 0.320279 0.590231
vt 0.255130 0.583888
vt 0.080812 0.155755
vt 0.085106 0.235994
vt 0.000037 0.257470
vt 0.000000 0.184435
vt 0.247281 0.105424
vt 0.270463 0.174440
vt 0.191735 0.210292
vt 0.169757 0.123256
vt 0.289906 0.271135
vt 0.305764 0.356064
vt 0.240904 0.392903
vt 0.215555 0.307712
vt 0.244722 0.672481
vt 0.225123 0.747807
vt 0.297871 0.665093
vt 0.598823 0.739932
vt 0.662160 0.710115
vt 0.523918 0.755010
vt 0.448341 0.757017
vt 0.386117 0.737747
vt 0.370253 0.681366
vt 0.353418 0.613776
vt 0.353618 0.540228
vt 0.371270 0.466083
vt 0.603665 0.376371
vt 0.662659 0.342743
vt 0.528304 0.383476
vt 0.447482 0.381918
vt 0.353829 0.419180
vt 0.427135 0.383476
vt 0.362657 0.296728
vt 0.353653 0.224701
vt 0.355283 0.151692
vt 0.371155 0.087047
vt 0.588977 0.000171
vt 0.491421 0.000000
vt 0.397005 0.002381
vt 0.353418 0.033786
vt 0.928457 0.367988
vt 0.852760 0.383476
vt 0.784882 0.358020
vt 0.310297 0.094199
vt 0.277195 0.053053
vt 0.298670 0.020994
vt 0.353418 0.073791
vt 0.914455 0.702201
vt 0.972177 0.683741
vt 0.834489 0.722923
vt 0.761860 0.712869
vt 0.218645 0.043618
vt 0.219895 0.000000
vt 0.698029 0.629900
vt 0.678280 0.556056
vt 0.685856 0.477368
vt 0.700398 0.409292
vt 0.007486 0.647596
vt 0.018856 0.702873
vt 0.000011 0.567781
vt 0.000000 0.492892
vt 0.023024 0.427539
vt 0.092920 0.408709
vt 0.168759 0.405290
vt 0.245546 0.413146
vt 0.313344 0.440495
vt 0.070181 0.081547
vt 0.011310 0.118988
vt 0.142491 0.050099
vt 0.342567 0.151199
vt 0.353151 0.231856
vt 0.342380 0.300493
vn -0.8695 -0.4709 -0.1489
vn -0.4180 -0.4679 -0.7787
vn -0.2725 -0.8095 -0.5199
vn -0.5410 -0.8347 -0.1027
vn 0.0599 -0.4203 -0.9054
vn 0.1309 -0.3919 -0.9106
vn 0.2271 -0.7183 -0.6576
vn 0.1887 -0.8193 -0.5414
vn 0.3868 -0.2456 0.8888
vn 0.4897 -0.4055 0.7718
vn 0.5317 -0.1351 0.8361
vn 0.3753 -0.0540 0.9253
vn 0.3288 -0.3899 0.8601
vn -0.6665 -0.3167 0.6748
vn -0.5095 -0.6530 0.5603
vn 0.3435 -0.6741 0.6539
vn 0.4197 -0.8256 0.3771
vn 0.5969 -0.7599 0.2572
vn 0.3220 0.9357 -0.1440
vn 0.1981 0.8166 -0.5421
vn -0.0710 0.8204 -0.5673
vn -0.1296 0.9753 -0.1786
vn -0.8987 -0.3089 0.3113
vn -0.8919 -0.3989 0.2130
vn -0.6249 -0.7705 0.1255
vn -0.6409 -0.7146 0.2802
vn -0.7834 0.5602 0.2691
vn -0.8194 0.5363 0.2023
vn -0.9655 0.0010 0.2605
vn -0.9445 0.0614 0.3226
vn -0.8455 0.5117 -0.1524
vn -0.4755 0.3618 -0.8018
vn -0.4901 -0.1122 -0.8644
vn -0.9850 -0.0248 -0.1708
vn 0.0559 -0.4613 -0.8855
vn 0.0627 -0.4756 -0.8774
vn 0.0475 -0.8406 -0.5395
vn -0.0792 -0.8352 -0.5442
vn 0.0398 0.1212 -0.9918
vn 0.1258 0.0143 -0.9919
vn 0.0890 -0.3040 -0.9485
vn 0.0566 -0.2428 -0.9684
vn 0.1090 0.0051 -0.9940
vn -0.0031 0.2138 -0.9769
vn 0.0481 -0.0171 -0.9987
vn 0.0363 -0.1883 -0.9814
vn 0.8843 -0.4541 -0.1083
vn 0.4136 -0.1248 0.9019
vn 0.3872 -0.1147 0.9148
vn 0.7761 0.5951 -0.2084
vn 0.5513 0.6000 0.5797
vn 0.4904 -0.1355 0.8609
vn 0.9589 0.0700 -0.2748
vn 0.4299 0.1957 0.8814
vn 0.5469 0.2613 0.7953
vn 0.5126 -0.4155 0.7514
vn 0.4586 -0.2648 0.8482
vn 0.7884 -0.3859 0.4791
vn 0.8888 -0.2633 0.3750
vn 0.8574 -0.3265 0.3979
vn 0.8209 -0.1157 0.5592
vn 0.8307 -0.0412 0.5552
vn 0.8278 -0.0732 0.5563
vn 0.8476 -0.2838 0.4484
vn 0.7269 -0.4370 0.5298
vn 0.2465 0.3399 0.9076
vn -0.6092 0.5199 0.5988
vn -0.7169 0.0377 0.6961
vn 0.2675 -0.1289 0.9549
vn 0.6091 0.0853 0.7885
vn 0.4656 -0.2161 0.8582
vn 0.0674 -0.9038 0.4226
vn -0.1948 -0.9652 0.1741
vn 0.3972 -0.7049 0.5877
vn 0.6530 -0.5295 0.5414
vn -0.2203 -0.9641 -0.1482
vn 0.2388 -0.9505 0.1988
vn 0.0735 0.9828 -0.1690
vn 0.2917 0.9379 -0.1874
vn -0.1075 0.9941 -0.0132
vn -0.1453 0.9873 0.0637
vn -0.1068 0.9898 -0.0938
vn -0.3995 0.6666 -0.6294
vn -0.1727 0.8254 -0.5374
vn -0.1968 0.9272 -0.3188
vn -0.3254 0.8313 -0.4506
vn -0.0304 0.7040 -0.7095
vn 0.1254 0.8580 -0.4981
vn -0.0397 0.9606 -0.2752
vn -0.1904 0.9499 0.2480
vn -0.1096 0.5593 -0.8217
vn -0.0730 0.8237 -0.5622
vn -0.0346 0.9992 0.0204
vn -0.0176 0.9906 0.1355
vn 0.5509 0.5882 0.5921
vn 0.2629 0.9547 0.1389
vn 0.5458 0.8014 0.2448
vn 0.3757 0.8051 0.4589
usemtl Material.008
s 1
f 1/1/1 2/2/2 3/3/3 4/4/4
f 5/5/5 6/6/6 7/7/7 8/8/8
f 9/9/9 10/10/10 11/11/11 12/12/12
f 13/13/13 14/14/14 15/15/15 16/16/16
f 17/17/17 8/8/8 7/7/7 18/18/18
f 19/19/19 20/20/20 21/21/21 22/22/22
f 23/23/23 24/24/24 25/25/25 26/26/26
f 27/27/27 28/28/28 29/29/29 30/30/30
f 31/31/31 32/32/32 33/33/33 34/34/34
f 35/35/35 36/36/36 37/37/37 38/38/38
f 39/39/39 40/40/40 41/41/41 42/42/42
f 43/43/43 44/44/44 45/45/45 46/46/46
f 47/47/47 48/48/48 49/49/49 18/50/18
f 50/51/50 51/52/51 52/53/52 53/54/53
f 54/55/54 55/56/55 56/57/56 57/58/57
f 58/59/58 59/60/59 60/61/60 61/62/61
f 62/63/62 63/64/63 64/65/64 65/66/65
f 66/67/66 67/68/67 68/69/68 69/70/69
f 70/71/70 71/72/71 49/73/49 12/74/12
f 72/75/72 73/76/73 74/77/74 75/78/75
f 76/79/76 38/80/38 37/81/37 77/82/77
f 78/83/78 79/84/79 80/85/80 81/86/81
f 82/87/82 83/88/83 84/89/84 85/90/85
f 86/91/86 87/92/87 88/93/88 89/94/89
f 24/24/24 1/1/1 4/4/4 25/25/25
f 29/29/29 34/34/34 1/1/1 24/24/24
f 34/34/34 33/33/33 2/2/2 1/1/1
f 36/36/36 5/5/5 8/8/8 37/37/37
f 41/41/41 46/46/46 5/5/5 36/36/36
f 46/46/46 45/45/45 6/6/6 5/5/5
f 48/48/48 9/9/9 12/12/12 49/49/49
f 52/53/52 57/58/57 9/9/9 48/48/48
f 57/58/57 56/57/56 10/10/10 9/9/9
f 59/60/59 13/13/13 16/16/16 60/61/60
f 64/65/64 69/70/69 13/13/13 59/60/59
f 69/70/69 68/69/68 14/14/14 13/13/13
f 71/72/71 17/95/17 18/96/18 49/73/49
f 74/77/74 77/82/77 17/95/17 71/72/71
f 77/82/77 37/81/37 8/97/8 17/95/17
f 79/84/79 19/19/19 22/22/22 80/85/80
f 84/89/84 89/94/89 19/19/19 79/84/79
f 89/94/89 88/93/88 20/20/20 19/19/19
f 14/98/14 23/23/23 26/26/26 15/99/15
f 68/100/68 30/30/30 23/23/23 14/98/14
f 30/30/30 29/29/29 24/24/24 23/23/23
f 67/101/67 27/27/27 30/30/30 68/100/68
f 90/102/90 81/103/81 27/27/27 67/101/67
f 81/103/81 80/104/80 28/28/28 27/27/27
f 28/28/28 31/31/31 34/34/34 29/29/29
f 80/104/80 22/105/22 31/31/31 28/28/28
f 22/105/22 21/106/21 32/32/32 31/31/31
f 2/107/2 35/35/35 38/38/38 3/108/3
f 33/109/33 42/42/42 35/35/35 2/107/2
f 42/42/42 41/41/41 36/36/36 35/35/35
f 32/110/32 39/39/39 42/42/42 33/109/33
f 21/106/21 20/111/20 39/112/39 32/32/32
f 20/113/20 88/114/88 40/40/40 39/39/39
f 40/40/40 43/43/43 46/46/46 41/41/41
f 88/114/88 87/115/87 43/43/43 40/40/40
f 87/115/87 91/116/91 44/44/44 43/43/43
f 6/6/6 47/117/47 18/18/18 7/7/7
f 45/45/45 53/118/53 47/117/47 6/6/6
f 53/54/53 52/53/52 48/48/48 47/47/47
f 44/44/44 50/119/50 53/118/53 45/45/45
f 91/116/91 92/120/92 50/119/50 44/44/44
f 92/121/92 93/122/93 51/52/51 50/51/50
f 51/52/51 54/55/54 57/58/57 52/53/52
f 93/122/93 94/123/94 54/55/54 51/52/51
f 94/124/94 95/125/95 55/126/55 54/127/54
f 10/128/10 58/59/58 61/62/61 11/129/11
f 56/130/56 65/66/65 58/59/58 10/128/10
f 65/66/65 64/65/64 59/60/59 58/59/58
f 55/131/55 62/63/62 65/66/65 56/130/56
f 95/125/95 96/132/96 62/133/62 55/126/55
f 96/134/96 97/135/97 63/64/63 62/63/62
f 63/64/63 66/67/66 69/70/69 64/65/64
f 97/135/97 98/136/98 66/67/66 63/64/63
f 98/136/98 90/137/90 67/68/67 66/67/66
f 61/138/61 70/71/70 12/74/12 11/139/11
f 60/140/60 75/78/75 70/71/70 61/138/61
f 75/78/75 74/77/74 71/72/71 70/71/70
f 16/141/16 72/75/72 75/78/75 60/140/60
f 15/142/15 26/143/26 72/75/72 16/141/16
f 26/143/26 25/144/25 73/76/73 72/75/72
f 73/76/73 76/79/76 77/82/77 74/77/74
f 25/144/25 4/145/4 76/79/76 73/76/73
f 4/145/4 3/146/3 38/80/38 76/79/76
f 98/147/98 78/83/78 81/86/81 90/148/90
f 97/149/97 85/90/85 78/83/78 98/147/98
f 85/90/85 84/89/84 79/84/79 78/83/78
f 96/132/96 82/87/82 85/90/85 97/149/97
f 95/125/95 94/124/94 82/87/82 96/132/96
f 94/124/94 93/150/93 83/88/83 82/87/82
f 83/88/83 86/91/86 89/94/89 84/89/84
f 93/150/93 92/151/92 86/91/86 83/88/83
f 92/151/92 91/152/91 87/92/87 86/91/86
